<?xml version="1.0" encoding="UTF-8"?>
<svg xmlns="http://www.w3.org/2000/svg" viewBox="81.08 234.51 917.60 605.54" role="img" aria-labelledby="title">
<title id="title">FrameFinder</title>
<g fill="#FF0000" transform="translate(-0.03,-5.19)"><circle cx="540" cy="462.6" r="29"/><polygon points="590.2 384 590.2 412.4 590.2 412.4 590.2 512.7 590.2 512.7 494.4 512.7 494.4 541.1 618.6 541.1 618.6 412.4 618.6 384 618.6 296.6 618.6 296.6 590.2 324.9 590.2 384"/><polygon points="374.1 541.1 453.1 541.1 453.1 512.7 402.5 512.7 374.1 541.1"/><polygon points="489.8 412.4 581.9 412.4 581.9 384 461.4 384 461.4 512.7 461.4 541.1 461.4 628.5 461.4 628.5 489.8 600.2 489.8 541.1 489.8 512.7 489.8 512.7 489.8 412.4 489.8 412.4"/><polygon points="623.2 384 623.2 412.4 677.5 412.4 705.9 384 623.2 384"/></g>
<g fill="#E6EAEC"><path d="M779.2,689l19-19s0,74.4-.1,111.6c-6,0-12,0-18,0-.3-3.6-.6-7.3-.6-10.9-3.1,6-8.9,10.5-15.5,12-10.3,2.2-21.8-1.2-28.9-9.1-10.2-11.2-12.2-27.8-8.3-42,2-7.5,6.2-14.7,12.6-19.3,7-5.1,16.2-6.9,24.7-5.2,6.2,1.3,11.5,5.4,15.2,10.5,0-9.5,0-28.5,0-28.5ZM756.8,723.5c-6.6,1.9-10.9,8.3-11.9,14.8-1.4,7.8-.6,16.7,4.9,22.9,5.5,6.3,15.9,7,22.3,1.7,5.1-4.2,6.9-11.1,7.2-17.5.2-6.6-1.2-13.7-6.2-18.4-4.2-4.1-10.6-5-16.1-3.5Z"/><polygon points="542.2 675.4 620.6 675.4 603.3 692.7 562.1 692.7 562.1 720.4 596.8 720.3 579.1 737.9 562.1 737.8 562.1 781.5 542.2 781.5 542.2 675.4"/><polygon points="137.9 675.4 216.3 675.4 199 692.7 157.8 692.7 157.9 720.4 192.5 720.3 174.9 737.9 157.8 737.8 157.8 781.5 137.9 781.5 137.9 675.4"/><path d="M242.2,708c9.8-2.7,17.4,2.6,18.4,3.3l-17,17c-.9-.6-3.8-2.3-6.8-1.3-1.9.6-2.9,1.9-3.4,2.6-4.4,5.6-4.8,21.2-4.8,22.8,0,9.7,0,19.4,0,29.2h-19.1v-73.8h17.9s.5,8.3.8,12.5c.5-1.1,4.3-9.5,14.1-12.2Z"/><path d="M923.8,708c9.8-2.7,17.4,2.6,18.4,3.3l-17,17c-.9-.6-3.8-2.3-6.8-1.3-1.9.6-2.9,1.9-3.4,2.6-4.4,5.6-4.8,21.2-4.8,22.8,0,9.7,0,19.4,0,29.2h-19.1v-73.8h17.9s.5,8.3.8,12.5c.5-1.1,4.3-9.5,14.1-12.2Z"/><path d="M261.5,720.4c4.5-7,11.9-12.2,20.2-13.5,10.2-2,21.7,1.9,27.5,10.8-.2-3.4.2-6.7.7-10,5.9,0,11.9,0,17.8,0,0,24.6,0,49.3,0,73.9-6,0-12,0-18,0-.3-3.7-.6-7.4-.8-11-2.6,5-6.9,9.1-12.3,11.1-10.8,4.1-23.8.6-31.7-7.7-6.5-6.8-9.8-16.2-10.3-25.4-.5-9.7,1.4-19.8,6.7-28ZM285,724c-6.2,2.6-9.9,9.1-10.8,15.6-1.1,7.3,0,15.5,4.8,21.3,5.1,6.3,15.2,7.5,21.7,2.8,5.5-3.9,7.7-10.9,8.1-17.3.2-6.8-1.1-14.2-6.1-19.2-4.5-4.7-11.9-5.5-17.8-3.1Z"/><path d="M359.8,718.4c6.6-14.1,28.4-16,38.5-4.8,1.5,1.6,2.7,3.4,3.8,5.3,3.8-6.1,10.1-10.9,17.3-12,8.8-1.5,18.9.6,24.7,7.8,5.8,7.2,6.9,16.8,6.6,25.7,0,13.7,0,27.5,0,41.2-6.3,0-12.7,0-19,0,0-13.7,0-27.4,0-41.1,0-4.3-.5-8.8-2.9-12.5-4.1-6.9-15.6-6.9-19.8-.1-2.8,4.3-3.4,9.5-3.4,14.5,0,13.1,0,26.2,0,39.2-6.4,0-12.7,0-19,0-.2-14.4.2-28.8-.2-43.2-.2-4.9-1.2-10.4-5.4-13.5-4.8-3.3-12.4-2.7-16.1,2.1-3.4,4.3-4.2,10-4.2,15.4,0,13.1,0,26.1,0,39.2-6.4,0-12.8,0-19.1,0,0-24.6,0-49.3,0-73.9,5.9,0,11.8,0,17.8,0,.2,3.6.4,7.2.5,10.8Z"/><path d="M470.3,717.1c11.5-12.4,32.3-14.3,46.3-4.9,11.6,8.2,15.4,23.6,14.3,37.1-17.1,0-34.2,0-51.3,0,.5,4.9,2.1,9.8,5.6,13.4,5.4,5.7,14.9,7.1,21.5,2.9,3.5-2.2,5.6-5.8,7.4-9.4,5.5,1.5,10.9,3.1,16.4,4.6-3.3,10-11.6,18.3-21.9,21-13.6,3.7-29.9.6-39.2-10.5-6.9-7.9-9.6-18.8-9-29.1.5-9.1,3.5-18.4,9.8-25.2ZM484.3,726.2c-2.4,2.9-3.5,6.7-4.2,10.4,10.6,0,21.3,0,31.9,0-.6-3.6-1.4-7.4-3.7-10.3-5.6-7.5-18.3-7.4-24-.1Z"/><path d="M666.9,718.6c6.8-13.4,26.1-15.7,37.7-7.3,7.2,5.2,10.3,14.5,10.4,23.1,0,15.7,0,31.5,0,47.2h-18.9c0-13.4,0-26.8,0-40.1,0-4.4,0-9.2-2.5-13-4.6-7.5-17-7.3-22.1-.4-3.4,4.3-4,10.1-4.1,15.4,0,12.7,0,25.5,0,38.2-6.3,0-12.7,0-19,0,0-24.7,0-49.3,0-73.9,6,0,12,0,18,0,.2,3.7.5,7.3.6,11Z"/><path d="M816.2,719.9c10.7-14.8,33.6-17.8,48.4-7.7,11.5,8.3,15.1,23.6,14.1,37-17.1,0-34.1,0-51.2,0,.4,4.4,1.7,8.9,4.6,12.4,5.4,6.8,16.2,8.6,23.3,3.4,3.1-2.2,5-5.7,6.6-9,5.5,1.5,10.9,3.1,16.3,4.6-3,8.9-9.5,16.6-18.3,20-14.9,5.8-34.1,2.1-43.8-11.3-10.4-14.2-10.3-35.3,0-49.6ZM832.3,726.2c-2.5,2.9-3.6,6.7-4.5,10.4,10.6,0,21.3,0,31.9,0-.6-3.8-1.4-7.7-3.9-10.7-5.7-7.1-18-6.8-23.6.3Z"/><path d="M615.5,707.6c6.3,0,12.6,0,19,0,0,24.6,0,49.3,0,73.9h-19c0-24.7,0-49.3,0-73.9Z"/><polygon points="633.9 700.7 615.7 700.7 633.9 682.5 633.9 700.7"/></g>
</svg>
